<?xml version="1.0" standalone="no"?>
<!DOCTYPE svg PUBLIC "-//W3C//DTD SVG 20010904//EN"
 "http://www.w3.org/TR/2001/REC-SVG-20010904/DTD/svg10.dtd">
<svg version="1.0" xmlns="http://www.w3.org/2000/svg"
 width="281.000000pt" height="282.000000pt" viewBox="0 0 281.000000 282.000000"
 preserveAspectRatio="xMidYMid meet">
<metadata>
Created by potrace 1.16, written by Peter Selinger 2001-2019
</metadata>
<g transform="translate(0.000000,282.000000) scale(0.100000,-0.100000)"
fill="#000000" stroke="none">
<path d="M2 2148 c1 -370 3 -655 5 -633 13 159 71 373 138 506 198 393 542
658 978 751 145 30 389 30 534 0 571 -122 997 -556 1099 -1122 23 -127 23
-353 0 -480 -49 -271 -184 -534 -376 -730 -86 -88 -205 -180 -231 -180 -10 0
-23 -8 -28 -18 -5 -9 -23 -25 -39 -35 l-30 -17 9 36 c9 30 8 38 -8 50 -10 7
-22 14 -26 14 -5 0 -5 4 -2 10 3 6 -1 7 -9 4 -16 -6 -16 17 -1 87 6 27 3 31
-32 45 -90 37 -113 53 -200 141 -51 51 -93 97 -93 103 0 5 -20 20 -44 32 -24
13 -56 38 -71 56 l-28 33 37 113 c20 63 43 120 52 127 17 14 71 95 95 144 28
56 44 75 62 75 10 0 22 12 29 28 6 15 19 45 29 67 9 22 20 64 24 92 4 29 11
55 16 58 5 3 16 22 25 41 14 29 15 37 4 44 -11 7 -8 26 15 102 49 159 37 328
-30 444 -62 105 -189 208 -290 232 -27 7 -102 13 -165 13 -129 1 -166 -9 -261
-67 -106 -66 -155 -146 -203 -331 -32 -124 -32 -131 -3 -182 l23 -40 22 45
c12 24 22 51 22 60 0 8 7 26 16 39 9 14 17 51 18 87 3 73 10 104 28 126 11 13
10 15 -5 9 -15 -6 -14 0 8 25 25 32 36 46 74 98 34 46 113 81 193 85 47 3 75
0 79 -7 4 -6 22 -13 41 -14 96 -8 180 -35 207 -67 17 -21 68 -47 92 -47 20 0
62 -47 89 -101 21 -40 27 -84 11 -74 -6 3 -28 -13 -51 -35 -22 -22 -49 -40
-58 -40 -16 -1 -16 -1 1 -11 9 -6 15 -15 11 -20 -3 -5 2 -21 11 -35 9 -15 14
-35 11 -48 -3 -13 1 -32 10 -45 l16 -23 -76 4 c-42 2 -76 6 -76 10 0 4 -18 1
-41 -7 -38 -14 -41 -14 -46 4 -3 13 -11 17 -24 14 -16 -5 -19 -14 -18 -63 1
-34 -6 -77 -16 -105 -15 -37 -16 -51 -7 -66 7 -11 8 -20 2 -24 -6 -3 -10 -16
-10 -29 0 -25 -38 -66 -62 -66 -18 0 -40 -23 -36 -37 2 -5 -10 -21 -25 -35
-39 -37 -34 -72 11 -76 17 -2 32 -7 32 -12 0 -13 -171 0 -204 16 -26 12 -31
12 -48 -2 -10 -10 -18 -20 -18 -23 0 -3 37 -7 83 -7 78 -2 147 -20 161 -43 4
-6 -11 -8 -34 -7 -28 2 -44 -2 -56 -15 -10 -11 -12 -19 -6 -19 7 0 12 -9 12
-19 0 -11 13 -28 30 -38 31 -18 34 -24 24 -59 -5 -17 -12 -20 -50 -18 -32 2
-44 -1 -44 -11 0 -10 -7 -12 -30 -5 -16 5 -45 7 -62 5 -24 -3 -29 -2 -18 5 12
8 11 10 -7 10 -15 0 -23 -7 -25 -22 -2 -15 -9 -22 -20 -20 -13 2 -10 -5 12
-30 21 -22 26 -34 18 -39 -8 -5 -4 -11 13 -19 34 -15 85 -100 67 -111 -7 -4
-9 -11 -5 -15 4 -4 1 -14 -6 -22 -10 -13 -9 -14 2 -7 11 6 12 5 5 -6 -4 -8 -9
-20 -10 -27 -5 -29 -14 -42 -29 -42 -9 0 -13 -4 -10 -10 3 -5 2 -10 -3 -10 -5
0 -12 -10 -15 -21 -5 -17 -12 -20 -31 -17 -30 6 -46 -24 -46 -85 1 -46 28
-111 48 -113 6 -1 15 -3 20 -4 4 -1 10 -2 14 -1 5 0 8 -3 8 -9 0 -5 6 -10 14
-10 7 0 19 -7 26 -15 18 -21 33 -19 21 3 -8 14 -6 18 10 19 11 1 17 -2 14 -8
-4 -5 -2 -9 4 -9 5 0 13 5 16 10 3 6 10 10 15 10 16 0 60 -47 60 -64 0 -11 5
-15 13 -11 6 4 -2 -6 -19 -22 -44 -40 -83 -73 -89 -73 -2 0 -17 12 -32 26 -15
15 -50 41 -78 59 -27 17 -70 48 -93 68 -24 21 -49 37 -55 38 -7 0 -22 2 -34 5
-13 2 -23 2 -23 0 0 -6 128 -86 139 -86 6 0 11 -9 11 -20 0 -11 5 -20 11 -20
5 0 7 -4 4 -10 -3 -5 -1 -11 4 -11 6 -1 16 -3 21 -4 6 -1 15 -3 22 -4 8 -1 7
-7 -4 -18 -14 -14 -20 -14 -33 -3 -8 7 -18 10 -21 8 -3 -3 9 -16 26 -28 19
-14 30 -17 28 -8 -2 8 5 12 17 10 11 -1 31 -4 45 -6 13 -2 26 -8 28 -15 3 -9
7 -9 18 0 10 8 14 8 14 1 0 -6 6 -9 14 -6 8 3 17 0 21 -6 7 -11 -20 -37 -55
-52 -11 -5 -10 -7 6 -7 12 -1 40 12 62 29 48 35 49 35 49 15 0 -8 -2 -13 -5
-10 -3 2 -18 -5 -34 -17 -23 -16 -27 -23 -16 -30 10 -8 9 -8 -5 -4 -30 10 -47
-4 -47 -40 0 -19 4 -34 9 -34 5 0 11 -9 14 -20 5 -18 0 -20 -36 -20 -71 0
-217 30 -327 66 -351 117 -646 375 -800 699 -82 171 -120 298 -139 465 -5 48
-9 -163 -10 -592 l-1 -668 1405 0 1405 0 0 1410 0 1410 -1405 0 -1405 0 2
-672z"/>
<path d="M1297 1844 c-12 -13 -8 -19 24 -38 41 -24 24 -36 -52 -36 -33 0 -63
-6 -75 -15 -18 -14 -18 -14 9 -15 15 0 28 1 30 3 1 1 13 -8 27 -20 13 -13 30
-23 38 -23 8 0 12 -6 8 -15 -4 -12 2 -15 28 -15 19 0 36 -5 38 -12 3 -8 13 -4
30 13 14 14 30 23 37 21 6 -2 14 10 17 27 4 17 9 30 13 29 21 -2 32 5 46 33
19 36 12 48 -16 31 -16 -10 -24 -9 -45 5 -14 9 -40 17 -57 18 -18 2 -46 6 -62
10 -17 3 -33 3 -38 -1z"/>
</g>
</svg>
